<?xml version="1.0" encoding="UTF-8"?>
<svg width="1200pt" height="1200pt" version="1.1" viewBox="0 0 1200 1200" xmlns="http://www.w3.org/2000/svg">
 <g>
  <path d="m285.28 333.32c3.3516-3.9531 2.8555-9.8711-1.0898-13.211-3.9727-3.3594-9.8789-2.8555-13.211 1.0898-2.0703 2.4453-4.1094 4.8984-6.1172 7.3789-3.2695 4.0195-2.6445 9.9258 1.375 13.184 1.7383 1.4102 3.8281 2.0977 5.8945 2.0977 2.7266 0 5.4375-1.1797 7.2891-3.4688 1.9336-2.3711 3.8828-4.7344 5.8594-7.0703z"/>
  <path d="m239.61 380.36c1.5664 1.0078 3.3242 1.4844 5.0547 1.4844 3.0859 0 6.1055-1.5195 7.9023-4.3125 1.6562-2.582 3.3398-5.1367 5.043-7.6719 2.8828-4.3047 1.7383-10.125-2.5547-13.008-4.293-2.9023-10.137-1.7383-13.008 2.5547-1.7773 2.6445-3.5352 5.3086-5.2656 8-2.793 4.3477-1.5312 10.152 2.8281 12.953z"/>
  <path d="m316.79 300.1c3.7617-3.5508 3.9375-9.4844 0.38281-13.258-3.5625-3.7539-9.4844-3.9258-13.258-0.38281-2.3164 2.1953-4.625 4.4141-6.9023 6.6562-3.6797 3.6445-3.7188 9.5781-0.082031 13.266 1.8398 1.8477 4.2578 2.7812 6.6758 2.7812 2.3789 0 4.7617-0.89844 6.5938-2.6992 2.168-2.1523 4.3672-4.2773 6.5898-6.3633z"/>
  <path d="m217.43 421.64c1.3477 0.66797 2.7656 0.98047 4.1641 0.98047 3.4531 0 6.7656-1.9062 8.4062-5.1992 1.3633-2.7461 2.7539-5.4844 4.1641-8.1836 2.3984-4.5859 0.63281-10.254-3.9531-12.652-4.5977-2.418-10.254-0.62109-12.652 3.9531-1.4844 2.8281-2.9297 5.6758-4.3477 8.5312-2.3086 4.6445-0.41406 10.266 4.2188 12.57z"/>
  <path d="m435.11 211.49c-2.1133-4.7344-7.6719-6.8398-12.387-4.7148-2.9297 1.3086-5.832 2.6641-8.707 4.0391-4.668 2.2422-6.6484 7.8359-4.4141 12.508 1.6094 3.3672 4.9727 5.3281 8.4688 5.3281 1.3555 0 2.7383-0.29297 4.0391-0.91406 2.7461-1.3203 5.5039-2.6016 8.2852-3.8555 4.7227-2.1211 6.8398-7.668 4.7148-12.391z"/>
  <path d="m353.61 257.4c-3.1133-4.1211-8.9922-4.9609-13.129-1.8477-2.5469 1.9219-5.0703 3.8711-7.5703 5.8398-4.0742 3.2031-4.7695 9.1016-1.5742 13.164 1.8477 2.3516 4.6055 3.5781 7.3789 3.5781 2.0234 0 4.0742-0.66016 5.7852-2.0039 2.4062-1.8945 4.8242-3.7734 7.2617-5.6016 4.1367-3.125 4.9609-9 1.8477-13.129z"/>
  <path d="m393.08 232.14c-2.6562-4.4492-8.4141-5.9219-12.855-3.2578-2.7461 1.6406-5.4648 3.2852-8.1562 4.9727-4.3945 2.7383-5.7422 8.5156-3.0039 12.91 1.7773 2.8555 4.8359 4.4219 7.9648 4.4219 1.6953 0 3.4062-0.45703 4.9453-1.418 2.6016-1.6094 5.2109-3.2031 7.8477-4.7695 4.4492-2.6523 5.9023-8.4102 3.2578-12.859z"/>
  <path d="m461.38 210.8c1.0234 0 2.0781-0.16406 3.1055-0.53125l3.5156-1.1992c4.918-1.6211 7.582-6.9297 5.9492-11.848-1.6211-4.9062-6.8945-7.582-11.848-5.9492l-3.8281 1.3086c-4.8906 1.7109-7.4531 7.0586-5.7422 11.949 1.3594 3.8516 4.9766 6.2695 8.8477 6.2695z"/>
  <path d="m407.73 965.04c-2.7109-1.4375-5.4023-2.9023-8.0859-4.3867-4.5234-2.5352-10.234-0.88672-12.742 3.6445-2.5195 4.5234-0.87891 10.234 3.6445 12.742 2.793 1.5547 5.5938 3.0781 8.4141 4.5703 1.3906 0.74219 2.8945 1.0898 4.375 1.0898 3.3594 0 6.6094-1.8125 8.293-4.9883 2.4258-4.5703 0.67969-10.246-3.8984-12.672z"/>
  <path d="m325.13 907.57c-3.8633-3.4414-9.7969-3.1055-13.238 0.76953-3.4414 3.8711-3.0938 9.7969 0.76953 13.238 2.3789 2.1133 4.7773 4.2109 7.1953 6.2812 1.7656 1.5195 3.9375 2.2617 6.0977 2.2617 2.6367 0 5.2656-1.1094 7.1133-3.2773 3.3789-3.9258 2.9219-9.8438-1.0156-13.211-2.3281-1.9961-4.6328-4.0195-6.9219-6.0625z"/>
  <path d="m223.16 768.04c-1.2461-2.7812-2.4609-5.5859-3.6445-8.3945-2.0156-4.7773-7.5156-6.9844-12.277-5.0078-4.7695 2.0039-7.0117 7.5-5.0078 12.277 1.2344 2.9375 2.5078 5.8672 3.8086 8.7812 1.5547 3.4805 4.9805 5.5469 8.5703 5.5469 1.2734 0 2.5742-0.25781 3.8164-0.81641 4.7266-2.1133 6.8477-7.6602 4.7344-12.387z"/>
  <path d="m449.39 984.14c-2.8555-1.125-5.6953-2.2695-8.5039-3.4414-4.8047-2.043-10.273 0.24609-12.27 5.0156-2.0039 4.7773 0.24609 10.273 5.0156 12.27 2.957 1.2461 5.9219 2.4453 8.9062 3.6055 1.125 0.4375 2.2812 0.64844 3.4258 0.64844 3.7461 0 7.2773-2.2617 8.7266-5.9492 1.8945-4.8242-0.48438-10.262-5.3008-12.148z"/>
  <path d="m360.92 936.19c-4.2305-3.0117-10.07-2.0234-13.074 2.1953s-2.0234 10.07 2.1953 13.074c2.6016 1.8594 5.2266 3.6797 7.875 5.4766 1.6094 1.0977 3.4414 1.6211 5.2539 1.6211 3.0039 0 5.9492-1.4375 7.7656-4.1094 2.9102-4.2852 1.793-10.117-2.4922-13.02-2.5312-1.7227-5.0312-3.4727-7.5234-5.2383z"/>
  <path d="m264.07 839.46c-3.0117-4.2031-8.8633-5.1836-13.082-2.168-4.2109 3.0195-5.1836 8.8711-2.168 13.082 1.8594 2.6016 3.7461 5.1641 5.6484 7.7188 1.8398 2.4609 4.6602 3.7617 7.5156 3.7617 1.9492 0 3.918-0.60547 5.6016-1.8672 4.1484-3.0938 5-8.9727 1.8945-13.121-1.8281-2.4453-3.625-4.9141-5.4102-7.4062z"/>
  <path d="m292.71 875.21c-3.4688-3.8633-9.3945-4.1758-13.238-0.71484-3.8555 3.4609-4.1758 9.3828-0.71484 13.238 2.1328 2.3711 4.2852 4.7344 6.4648 7.0586 1.8477 1.9688 4.3477 2.9648 6.8477 2.9648 2.2969 0 4.5977-0.84375 6.4102-2.5273 3.7812-3.543 3.9727-9.4766 0.4375-13.258-2.0859-2.2305-4.1641-4.4805-6.207-6.7617z"/>
  <path d="m239.57 800.79c-2.5352-4.5117-8.25-6.125-12.762-3.6055-4.5117 2.5273-6.1328 8.2383-3.6055 12.762 1.5547 2.7734 3.1484 5.5469 4.7617 8.293 1.75 2.9766 4.8789 4.625 8.0938 4.625 1.6094 0 3.25-0.41016 4.7422-1.2891 4.4688-2.6289 5.9492-8.3789 3.332-12.836-1.5586-2.6406-3.0781-5.2852-4.5625-7.9492z"/>
  <path d="m721.89 994.2c-2.9219 0.89844-5.8516 1.7656-8.7969 2.6172-4.9805 1.418-7.8555 6.6094-6.4258 11.59 1.1719 4.1211 4.9258 6.793 9.0078 6.793 0.85156 0 1.7227-0.11719 2.582-0.36719 3.0586-0.87109 6.1172-1.7773 9.1445-2.7109 4.9531-1.5273 7.7266-6.7734 6.207-11.719-1.5312-4.9297-6.75-7.75-11.719-6.2031z"/>
  <path d="m764.78 978.28c-2.793 1.2188-5.6016 2.4062-8.4219 3.5625-4.7891 1.9688-7.0859 7.4414-5.125 12.23 1.4922 3.625 4.9883 5.8242 8.6797 5.8242 1.1914 0 2.3906-0.21875 3.5508-0.69531 2.9492-1.207 5.8867-2.4531 8.8086-3.7266 4.75-2.0703 6.9219-7.5977 4.8516-12.34-2.0625-4.7344-7.5742-6.9141-12.344-4.8555z"/>
  <path d="m843.99 932.65c-2.4609 1.8047-4.9531 3.5898-7.4531 5.3477-4.2305 2.9766-5.2539 8.8242-2.2812 13.066 1.8203 2.5898 4.7344 3.9844 7.6797 3.9844 1.8594 0 3.7461-0.55078 5.3828-1.7031 2.6094-1.832 5.1914-3.6914 7.7656-5.5859 4.1758-3.0664 5.0703-8.9258 2.0039-13.102-3.0547-4.1797-8.9414-5.0859-13.098-2.0078z"/>
  <path d="m995.02 748.75c-4.7617-1.9141-10.262 0.38281-12.203 5.1914-1.1445 2.8398-2.3164 5.6758-3.5234 8.4961-2.0312 4.7617 0.18359 10.273 4.9453 12.305 1.1992 0.51172 2.4453 0.75 3.6797 0.75 3.6328 0 7.1055-2.1328 8.625-5.6953 1.2461-2.9297 2.4727-5.8789 3.6719-8.8438 1.9258-4.7969-0.39062-10.262-5.1953-12.203z"/>
  <path d="m976.05 791.63c-4.5508-2.4531-10.246-0.74219-12.699 3.8164-1.4375 2.6836-2.9102 5.3477-4.4297 7.9922-2.5742 4.4961-1.0156 10.227 3.4805 12.801 1.4727 0.84375 3.0781 1.2344 4.6523 1.2344 3.25 0 6.418-1.6953 8.1484-4.7148 1.5938-2.793 3.1406-5.6016 4.668-8.4336 2.4492-4.5547 0.73828-10.242-3.8203-12.695z"/>
  <path d="m1009.1 704.01c-5-1.4102-10.164 1.5195-11.543 6.5078-0.82422 2.957-1.6758 5.9062-2.5625 8.8438-1.5 4.9609 1.3086 10.191 6.2617 11.684 0.90625 0.27344 1.8125 0.40234 2.7109 0.40234 4.0273 0 7.7539-2.6094 8.9727-6.6641 0.92578-3.0664 1.8125-6.1445 2.6719-9.2266 1.3906-4.9922-1.5195-10.164-6.5117-11.547z"/>
  <path d="m805.64 957.67c-2.6367 1.5195-5.293 3.0117-7.9648 4.4688-4.5508 2.4805-6.2266 8.1758-3.7461 12.715 1.7031 3.1211 4.918 4.8906 8.2383 4.8906 1.5195 0 3.0586-0.36719 4.4766-1.1445 2.8008-1.5273 5.5859-3.0938 8.3516-4.6875 4.4844-2.582 6.0352-8.3125 3.4414-12.801-2.5781-4.4844-8.3008-6.0312-12.797-3.4414z"/>
  <path d="m879.36 903.52c-2.2539 2.0703-4.5312 4.1094-6.8281 6.1328-3.8828 3.4336-4.25 9.3555-0.82422 13.238 1.8594 2.0977 4.4414 3.168 7.0312 3.168 2.207 0 4.4219-0.76953 6.207-2.3438 2.3906-2.1133 4.7617-4.25 7.1055-6.4102 3.8164-3.5078 4.0547-9.4297 0.55078-13.238-3.4922-3.8125-9.4531-4.0625-13.242-0.54687z"/>
  <path d="m939.39 834.51c-1.7305 2.5195-3.5078 5.0078-5.293 7.4805-3.0391 4.1914-2.1055 10.051 2.0859 13.094 1.668 1.207 3.5898 1.7852 5.4922 1.7852 2.9023 0 5.7695-1.3477 7.5977-3.8711 1.875-2.582 3.7266-5.1992 5.5469-7.8281 2.9375-4.2656 1.8672-10.098-2.3906-13.047-4.2695-2.9336-10.09-1.8789-13.039 2.3867z"/>
  <path d="m911.28 870.7c-2.0039 2.3086-4.0391 4.5859-6.0898 6.8398-3.4805 3.8359-3.1953 9.7578 0.63281 13.246 1.8047 1.6289 4.0547 2.4336 6.3086 2.4336 2.5469 0 5.0898-1.0352 6.9414-3.0664 2.1406-2.3633 4.2656-4.75 6.3633-7.168 3.3984-3.9102 2.9766-9.8242-0.93359-13.219-3.9141-3.4062-9.8359-2.9961-13.223 0.93359z"/>
  <path d="m986.66 455.97c1.0625 2.8555 2.0859 5.7227 3.0938 8.5977 1.3477 3.8711 4.9727 6.2969 8.8516 6.2969 1.0234 0 2.0586-0.16406 3.0781-0.52344 4.8984-1.7031 7.4805-7.0391 5.7773-11.93-1.043-3.0195-2.125-6.0156-3.2422-9-1.8047-4.8516-7.2148-7.3047-12.059-5.5039-4.8516 1.8086-7.3125 7.2109-5.5 12.062z"/>
  <path d="m1000.2 499.68c0.74219 2.9492 1.4453 5.9062 2.1133 8.8789 0.98047 4.3594 4.8516 7.3164 9.1367 7.3164 0.6875 0 1.375-0.074219 2.0703-0.23047 5.0547-1.1367 8.2227-6.1523 7.0859-11.207-0.70312-3.1211-1.4453-6.2422-2.2266-9.3398-1.2617-5.0156-6.3711-8.0547-11.379-6.8008-5.0156 1.2656-8.0664 6.3555-6.8008 11.383z"/>
  <path d="m968.31 414.05c1.375 2.7188 2.7188 5.457 4.0273 8.2031 1.6094 3.3672 4.9727 5.3281 8.4688 5.3281 1.3555 0 2.7383-0.29297 4.0391-0.91406 4.668-2.2422 6.6484-7.8359 4.4141-12.508-1.3828-2.875-2.7812-5.7422-4.2305-8.5859-2.3359-4.6133-7.957-6.4922-12.598-4.1211-4.6172 2.3359-6.4648 7.9766-4.1211 12.598z"/>
  <path d="m731.95 209.06c2.8945 0.96875 5.7773 1.9766 8.6406 3.0195 1.0625 0.38281 2.1406 0.56641 3.2148 0.56641 3.8281 0 7.4258-2.3633 8.8086-6.1602 1.7773-4.8711-0.73438-10.246-5.5938-12.02-3.0117-1.0977-6.043-2.1602-9.082-3.1875-4.9453-1.6289-10.234 1.0078-11.883 5.8945-1.6484 4.918 0.98828 10.227 5.8945 11.887z"/>
  <path d="m950.33 382.11c1.7773 2.8555 4.8359 4.4297 7.9727 4.4297 1.6836 0 3.3984-0.45703 4.9336-1.4102 4.4023-2.7266 5.75-8.5156 3.0195-12.91-1.6953-2.7188-3.4141-5.4219-5.1719-8.0938-2.8281-4.3203-8.6523-5.5469-12.98-2.6914-4.332 2.8398-5.5312 8.6523-2.6914 12.98 1.668 2.5508 3.3125 5.1016 4.918 7.6953z"/>
  <path d="m923.97 344.64c1.8477 2.3516 4.6055 3.5781 7.3789 3.5781 2.0234 0 4.0742-0.66016 5.7852-2.0039 4.0742-3.2031 4.7695-9.1016 1.5742-13.164-1.9766-2.5195-3.9844-5-6.0156-7.4609-3.2969-3.9844-9.1914-4.5586-13.203-1.2617-3.9922 3.2969-4.5586 9.1992-1.2617 13.203 1.9414 2.3477 3.8555 4.7188 5.7422 7.1094z"/>
  <path d="m795.31 225.87c2.3086-4.6406 0.41016-10.262-4.2188-12.57-2.875-1.4297-5.7578-2.8125-8.6602-4.1758-4.6797-2.1797-10.273-0.15625-12.469 4.5234-2.1875 4.6875-0.16406 10.273 4.5234 12.469 2.7734 1.2891 5.5312 2.6172 8.2578 3.9727 1.3477 0.66797 2.7656 0.98047 4.1641 0.98047 3.4492 0 6.7656-1.9062 8.4023-5.1992z"/>
  <path d="m871.58 264.99c-2.5-2.0234-5-4.0117-7.5273-5.9688-4.0938-3.1602-9.9805-2.4062-13.156 1.6758-3.168 4.0938-2.418 9.9883 1.6758 13.156 2.418 1.8672 4.8047 3.7617 7.1797 5.6953 1.7383 1.4102 3.8359 2.0977 5.9062 2.0977 2.7266 0 5.4375-1.1797 7.2891-3.4688 3.2578-4.0234 2.6523-9.9219-1.3672-13.188z"/>
  <path d="m907.02 297.14c-2.2422-2.2695-4.5039-4.5117-6.793-6.7305-3.7188-3.6172-9.668-3.5156-13.258 0.18359-3.6172 3.7188-3.5234 9.6484 0.18359 13.258 2.1953 2.1406 4.3672 4.293 6.5195 6.4727 1.8398 1.8477 4.2578 2.7812 6.6758 2.7812 2.3789 0 4.7617-0.89844 6.5938-2.6992 3.6758-3.6445 3.7109-9.5781 0.078126-13.266z"/>
  <path d="m835.59 249.85c2.793-4.3477 1.5273-10.152-2.8281-12.953-2.6914-1.7305-5.4023-3.4258-8.1406-5.0898-4.4023-2.6992-10.191-1.2891-12.883 3.1211-2.6992 4.4219-1.3008 10.191 3.1211 12.883 2.6094 1.5938 5.1914 3.2148 7.7734 4.8711 1.5664 1.0078 3.3242 1.4844 5.0547 1.4844 3.0859-0.003906 6.1055-1.5234 7.9023-4.3164z"/>
  <path d="m688.69 974.63c-3.0859-1.6016-6.8555-1.3555-9.7227 0.64844-0.14062 0.09375-12.387 8.4531-32.09 10.703v-49.598c0-3.4961-1.9609-6.6836-5.0625-8.293-3.0938-1.6211-6.8477-1.3633-9.7227 0.64062-0.15625 0.10938-16.434 11.27-41.75 11.27-11.445 0-17.348-2.9492-24.828-6.6758-9.4766-4.7227-20.215-10.078-41.691-10.078-14.211 0-31.074 5.1562-50.105 15.324-3.0586 1.6367-4.9648 4.8125-4.9648 8.2734v78.828c0 3.2969 1.7305 6.3438 4.5508 8.0391 2.8203 1.6836 6.3164 1.7852 9.2383 0.23047 14.406-7.6797 25.246-11.02 33.086-12.336v50.621c0 3.2969 1.7305 6.3438 4.5508 8.0391 2.8125 1.6953 6.3164 1.7852 9.2383 0.23047 20.316-10.832 33.664-13.109 41.281-13.109 17.055 0 24.965 3.9453 33.324 8.1133 8.1289 4.0547 17.332 8.6523 33.195 8.6523 31.613 0 51.766-14.145 52.605-14.75 2.4648-1.7656 3.9297-4.6016 3.9297-7.6328v-78.836c0-3.4961-1.9688-6.6836-5.0625-8.3047zm-13.688 81.793c-6.2969 3.3047-19.746 8.9727-37.785 8.9727-11.445 0-17.348-2.9492-24.82-6.6758-9.4844-4.7344-20.223-10.09-41.703-10.09-10.664 0-22.844 2.9102-36.32 8.6719v-35.859c10.191 1.2578 16.367 4.3047 22.77 7.4961 8.1289 4.0547 17.332 8.6523 33.195 8.6523 31.613 0 51.766-14.145 52.605-14.75 2.4688-1.7578 3.9336-4.5938 3.9336-7.625v-10.426c11.402-1.0625 20.98-3.7773 28.125-6.6016zm-187.5-45.676v-58.18c17.531-8.6523 29.324-10.566 36.32-10.566 17.066 0 24.965 3.9375 33.324 8.1133 8.1289 4.0547 17.34 8.6406 33.195 8.6406 15.773 0 28.691-3.5156 37.785-7.1211v58.238c-6.2969 3.3047-19.746 8.9727-37.785 8.9727-11.445 0-17.348-2.9492-24.82-6.6758-7.7695-3.875-16.484-8.1211-31.145-9.5508-2.8906-0.28125-5.9766-0.46875-9.375-0.50391-0.41016-0.003907-0.76172-0.039063-1.1797-0.039063-2.6406 0-5.375 0.18359-8.1953 0.53906-4.9922 0.62891-10.309 1.9102-15.844 3.6445-3.9766 1.25-8.0391 2.6758-12.281 4.4883z"/>
  <path d="m545.35 994.28c3.3828 3.1406 7.8789 5.1016 12.859 5.1016 7.4883 0 13.902-4.3789 16.98-10.688 1.2266-2.5078 1.9727-5.2891 1.9727-8.2695 0-0.36328-0.085937-0.69922-0.10547-1.0547-0.19531-3.4805-1.2617-6.7227-3.082-9.4531-3.3984-5.0898-9.1875-8.4453-15.766-8.4453-9.1328 0-16.75 6.4648-18.547 15.062-0.26172 1.2578-0.41016 2.5586-0.41016 3.8945 0 2.0391 0.40625 3.9688 1.0039 5.8086 1.0039 3.1094 2.75 5.8672 5.0938 8.043z"/>
  <path d="m600 234.38c25.844 0 46.875-21.031 46.875-46.875s-21.031-46.875-46.875-46.875-46.875 21.031-46.875 46.875 21.031 46.875 46.875 46.875zm0-75c15.508 0 28.125 12.617 28.125 28.125s-12.617 28.125-28.125 28.125-28.125-12.617-28.125-28.125 12.617-28.125 28.125-28.125z"/>
  <path d="m496.88 196.88h18.75c0.19141 0 0.34766-0.097656 0.53516-0.10938 1.6992 15.484 7.6523 29.672 16.598 41.492-0.097656 0.089844-0.22266 0.11719-0.31641 0.21094l-15.125 15.125c-3.6641 3.6641-3.6641 9.5938 0 13.258 1.832 1.832 4.2305 2.7461 6.6289 2.7461 2.3984 0 4.7969-0.91406 6.6289-2.7461l14.988-14.988c12.484 10.578 28.055 17.598 45.168 19.477-0.007813 0.1875-0.10547 0.34375-0.10547 0.53516v18.75c0 5.1836 4.1914 9.375 9.375 9.375s9.375-4.1914 9.375-9.375v-18.75c0-0.19141-0.097656-0.34766-0.10938-0.53516 17.113-1.8789 32.684-8.9023 45.168-19.477l14.988 14.988c1.832 1.832 4.2305 2.7461 6.6289 2.7461 2.3984 0 4.7969-0.91406 6.6289-2.7461 3.6641-3.6641 3.6641-9.5938 0-13.258l-15.125-15.125c-0.09375-0.09375-0.21875-0.12109-0.31641-0.21094 8.9453-11.816 14.898-26.008 16.598-41.492 0.19141 0.011719 0.34766 0.10938 0.53906 0.10938h18.75c5.1836 0 9.375-4.1914 9.375-9.375s-4.1914-9.375-9.375-9.375h-18.75c-0.19141 0-0.34766 0.097656-0.53516 0.10938-1.8789-17.113-8.9023-32.684-19.477-45.168l18.32-18.32c3.6641-3.6641 3.6641-9.5938 0-13.258-3.6641-3.6641-9.5938-3.6641-13.258 0l-18.727 18.727c-11.805-8.918-25.973-14.855-41.43-16.551 0.007813-0.19141 0.10547-0.34766 0.10547-0.53906v-18.75c0-5.1836-4.1914-9.375-9.375-9.375s-9.375 4.1914-9.375 9.375v18.75c0 0.19141 0.097656 0.34766 0.10938 0.53516-15.457 1.6992-29.625 7.6328-41.43 16.551l-18.727-18.727c-3.6641-3.6641-9.5938-3.6641-13.258 0-3.6641 3.6641-3.6641 9.5938 0 13.258l18.32 18.32c-10.578 12.484-17.598 28.055-19.477 45.168-0.19141-0.007813-0.34766-0.10547-0.53906-0.10547h-18.75c-5.1836 0-9.375 4.1914-9.375 9.375s4.1914 9.375 9.375 9.375zm103.12-75c36.18 0 65.625 29.445 65.625 65.625s-29.445 65.625-65.625 65.625-65.625-29.445-65.625-65.625 29.445-65.625 65.625-65.625z"/>
  <path d="m1097.6 564.32c-3.25-7.9297-12.91-16.902-39.992-15.707-13.684-14.5-33.016-23.613-54.48-23.613-41.125 0-74.594 33.281-74.965 74.32-24.762 20.07-25.875 34.617-22.316 43.328 3.0586 7.4805 11.711 15.902 35.164 15.902 2.4922 0 5.1445-0.089843 7.9844-0.29297 1.9219-0.13672 4.0625-0.52734 6.0664-0.75781 13.023 10.906 29.785 17.5 48.066 17.5 39.457 0 71.82-30.648 74.715-69.379 16.105-13.715 25.062-28.32 19.758-41.301zm-94.473-20.57c29.797 0 54.188 23.301 56.066 52.633-11.492 8.6094-27.766 18.219-49.328 27.027-16.848 6.8789-33.512 11.82-48.277 14.387-9.1055-9.9961-14.711-23.238-14.711-37.797 0-31.02 25.23-56.25 56.25-56.25zm-79.926 91.809c-0.60156-1.4727 1.1055-6.4727 8.1562-13.852 1.9492 6.4297 4.7812 12.465 8.2852 18.039-11.949-0.22656-16.043-3.2109-16.441-4.1875zm79.926 20.691c-7.2617 0-14.18-1.4297-20.559-3.9453 11.129-2.9258 22.738-6.7812 34.383-11.539 13.219-5.4023 26.289-11.898 38.035-18.992-8.5312 20.238-28.559 34.477-51.859 34.477zm72.539-74.965c-1.2188-4.7188-2.8789-9.2539-4.9492-13.57 6.6758 0.96094 9.2109 2.9453 9.5234 3.6914 0.71094 1.7383-0.80078 5.2656-4.5742 9.8789z"/>
  <path d="m208.93 665.62c13.129 0 24.391-8.9258 27.383-21.707 1.7227-7.3711 4.2109-14.594 7.3867-21.488l13.184-28.574c0.14844-0.32031 0.27344-0.64844 0.38281-0.98047 3.5703-8.5039 5.3828-17.488 5.3828-26.707 0-20.801-9.2461-40.293-25.359-53.477-16.121-13.184-37.262-18.355-58.043-14.125-25.562 5.1836-46.766 25.727-52.762 51.125-3.4688 14.738-2.2539 29.707 3.5156 43.34 0.089844 0.28516 0.21094 0.55078 0.32812 0.82422l13.191 28.582c3.1602 6.8281 5.6406 14.062 7.3789 21.477 2.9961 12.785 14.258 21.711 27.387 21.711zm-39.773-25.992c-2.0234-8.6406-4.9258-17.082-8.6133-25.059l-12.926-28.008c-0.046875-0.12891-0.10156-0.25781-0.15625-0.38281-4.3672-10.062-5.3086-21.195-2.7188-32.191 4.3398-18.402 19.711-33.289 38.223-37.043 15.199-3.1211 30.707 0.64062 42.453 10.262 11.746 9.6055 18.484 23.805 18.484 38.957 0 6.9219-1.4023 13.66-4.1641 20.023-0.082032 0.17578-0.14844 0.35547-0.21875 0.53906l-12.844 27.84c-3.707 8.0469-6.6016 16.469-8.6133 25.059-1.0039 4.2695-4.7578 7.2461-9.1328 7.2461h-30.645c-4.375 0-8.1289-2.9766-9.1289-7.2422z"/>
  <path d="m215.62 693.75c5.1836 0 9.375-4.1914 9.375-9.375s-4.1914-9.375-9.375-9.375h-46.875c-5.1836 0-9.375 4.1914-9.375 9.375s4.1914 9.375 9.375 9.375z"/>
  <path d="m215.62 712.5c0-5.1836-4.1914-9.375-9.375-9.375h-28.125c-5.1836 0-9.375 4.1914-9.375 9.375s4.1914 9.375 9.375 9.375h28.125c5.1836 0 9.375-4.1914 9.375-9.375z"/>
  <path d="m196.88 483.64c5.1836 0 9.375-4.1914 9.375-9.375v-24.27c0-5.1836-4.1914-9.375-9.375-9.375s-9.375 4.1914-9.375 9.375v24.27c0 5.1836 4.1914 9.375 9.375 9.375z"/>
  <path d="m248.55 453.39c-4.8359-1.8203-10.234 0.67578-12.039 5.5391l-7.5156 20.316c-1.8047 4.8516 0.67578 10.246 5.5391 12.039 1.0703 0.40234 2.168 0.58594 3.25 0.58594 3.8086 0 7.3867-2.3359 8.7891-6.125l7.5156-20.316c1.8047-4.8516-0.67578-10.242-5.5391-12.039z"/>
  <path d="m147.34 485.74c1.4023 3.7812 4.9883 6.125 8.7969 6.125 1.082 0 2.1797-0.18359 3.25-0.57813 4.8516-1.8047 7.3438-7.1875 5.5469-12.047l-7.5078-20.316c-1.793-4.8633-7.1953-7.3242-12.047-5.5469-4.8516 1.8047-7.3438 7.1875-5.5469 12.047z"/>
  <path d="m759.58 746.87-6.3477-37.512c-10.68-63.145-65.371-109.36-129.41-109.36h-47.648c-64.039 0-118.73 46.215-129.41 109.36l-6.3477 37.512c-1.9336 11.445 6.8828 21.879 18.488 21.879h282.19c11.605 0 20.422-10.434 18.488-21.879z"/>
  <path d="m463.14 495.41c0 21.207 17.195 38.402 38.402 38.402 5.4414 0 10.605-1.1641 15.297-3.207 8.5625 16.555 22.07 30.754 39.855 40.016 13.832 7.2109 28.637 10.625 43.227 10.625 33.828 0 66.496-18.371 83.207-50.445 1.0742-2.0625 1.9648-4.168 2.8711-6.2656 6.7031 5.707 15.277 9.2812 24.773 9.2812 21.207 0 38.402-17.195 38.402-38.402 0-16.246-10.121-30.059-24.371-35.668 2.3594-4.9805 3.7852-10.484 3.7852-16.363 0-21.211-17.195-38.402-38.402-38.402-11.145 0-21.098 4.8242-28.113 12.41-5.6094-4.9609-11.828-9.3984-18.77-13.016-13.832-7.2148-28.637-10.629-43.227-10.629-20.008 0-39.527 6.5742-55.66 18.461-6.293-4.5078-13.953-7.2305-22.285-7.2305-21.211 0-38.402 17.191-38.402 38.402 0 5.8789 1.4258 11.383 3.7852 16.363-14.254 5.6133-24.375 19.426-24.375 35.668zm102.22 58.586c-15.371-8.0078-26.746-20.664-33.441-35.328-3.4922-7.6484-5.7031-15.832-6.4961-24.227 4.9844-0.67578 9.6953-1.6836 14.125-2.9961 32.762-9.7188 50.758-35.547 60.375-57.285 4.8906 14.812 15.75 28.855 39.656 28.855 0 0-2.0664 34.805 33.059 42.797-1.3984 5.5508-3.3789 11.031-6.1367 16.324-12.969 24.895-38.48 40.359-66.578 40.359-12.105 0-23.734-2.8594-34.562-8.5z"/>
 </g>
</svg>
