<?xml version="1.0" encoding="UTF-8"?>
<svg width="700pt" height="700pt" version="1.1" viewBox="0 0 700 700" xmlns="http://www.w3.org/2000/svg" xmlns:xlink="http://www.w3.org/1999/xlink">
 <defs>
  <symbol id="o" overflow="visible">
   <path d="m29.312-1.75c-1.5117 0.78125-3.0898 1.3711-4.7344 1.7656-1.6367 0.40625-3.3398 0.60938-5.1094 0.60938-5.3125 0-9.5273-1.4844-12.641-4.4531-3.1055-2.9688-4.6562-7-4.6562-12.094s1.5508-9.125 4.6562-12.094c3.1133-2.9688 7.3281-4.4531 12.641-4.4531 1.7695 0 3.4727 0.19922 5.1094 0.59375 1.6445 0.39844 3.2227 0.99219 4.7344 1.7812v6.5938c-1.5312-1.0391-3.0391-1.8008-4.5156-2.2812-1.4805-0.48828-3.0391-0.73438-4.6719-0.73438-2.9375 0-5.2461 0.94531-6.9219 2.8281-1.6797 1.875-2.5156 4.4648-2.5156 7.7656 0 3.293 0.83594 5.8828 2.5156 7.7656 1.6758 1.875 3.9844 2.8125 6.9219 2.8125 1.6328 0 3.1914-0.23828 4.6719-0.71875 1.4766-0.48828 2.9844-1.2539 4.5156-2.2969z"/>
  </symbol>
  <symbol id="h" overflow="visible">
   <path d="m21.453-17.406c-0.67969-0.3125-1.3516-0.53906-2.0156-0.6875-0.65625-0.15625-1.3203-0.23438-1.9844-0.23438-1.9688 0-3.4844 0.63281-4.5469 1.8906-1.0547 1.2617-1.5781 3.0703-1.5781 5.4219v11.016h-7.6562v-23.922h7.6562v3.9219c0.97656-1.5625 2.1016-2.7031 3.375-3.4219 1.2812-0.71875 2.8125-1.0781 4.5938-1.0781 0.25 0 0.52344 0.011719 0.82812 0.03125 0.30078 0.023438 0.73438 0.070312 1.2969 0.14062z"/>
  </symbol>
  <symbol id="b" overflow="visible">
   <path d="m27.562-12.031v2.1875h-17.891c0.1875 1.793 0.83203 3.1367 1.9375 4.0312 1.1133 0.89844 2.6719 1.3438 4.6719 1.3438 1.6016 0 3.25-0.23438 4.9375-0.70312 1.6875-0.47656 3.4219-1.2031 5.2031-2.1719v5.8906c-1.8047 0.6875-3.6094 1.2031-5.4219 1.5469-1.8125 0.35156-3.6211 0.53125-5.4219 0.53125-4.3359 0-7.7031-1.0977-10.109-3.2969-2.3984-2.207-3.5938-5.2969-3.5938-9.2656 0-3.9062 1.1758-6.9727 3.5312-9.2031 2.3633-2.2383 5.6094-3.3594 9.7344-3.3594 3.7578 0 6.7695 1.1367 9.0312 3.4062 2.2578 2.2617 3.3906 5.2812 3.3906 9.0625zm-7.8594-2.5312c0-1.457-0.42969-2.6289-1.2812-3.5156-0.84375-0.89453-1.9492-1.3438-3.3125-1.3438-1.4922 0-2.6992 0.41797-3.625 1.25-0.91797 0.83594-1.4922 2.0391-1.7188 3.6094z"/>
  </symbol>
  <symbol id="d" overflow="visible">
   <path d="m14.391-10.766c-1.5938 0-2.793 0.27344-3.5938 0.8125-0.80469 0.54297-1.2031 1.3398-1.2031 2.3906 0 0.96875 0.32031 1.7305 0.96875 2.2812 0.64453 0.54297 1.5469 0.8125 2.7031 0.8125 1.4375 0 2.6445-0.51562 3.625-1.5469 0.98828-1.0312 1.4844-2.3203 1.4844-3.875v-0.875zm11.688-2.8906v13.656h-7.7031v-3.5469c-1.0312 1.4492-2.1875 2.5078-3.4688 3.1719s-2.8398 1-4.6719 1c-2.4805 0-4.4961-0.72266-6.0469-2.1719-1.543-1.4453-2.3125-3.3203-2.3125-5.625 0-2.8125 0.96094-4.8672 2.8906-6.1719 1.9375-1.3125 4.9688-1.9688 9.0938-1.9688h4.5156v-0.60938c0-1.207-0.48047-2.0938-1.4375-2.6562-0.94922-0.5625-2.4375-0.84375-4.4688-0.84375-1.6367 0-3.1562 0.16797-4.5625 0.5-1.4062 0.32422-2.7188 0.8125-3.9375 1.4688v-5.8281c1.6445-0.40625 3.2891-0.70703 4.9375-0.90625 1.6562-0.20703 3.3047-0.3125 4.9531-0.3125 4.3203 0 7.4375 0.85547 9.3438 2.5625 1.9141 1.6992 2.875 4.4609 2.875 8.2812z"/>
  </symbol>
  <symbol id="a" overflow="visible">
   <path d="m12.031-30.719v6.7969h7.875v5.4688h-7.875v10.141c0 1.1172 0.21875 1.8711 0.65625 2.2656 0.4375 0.38672 1.3125 0.57812 2.625 0.57812h3.9375v5.4688h-6.5625c-3.0234 0-5.1641-0.62891-6.4219-1.8906-1.2617-1.2578-1.8906-3.3984-1.8906-6.4219v-10.141h-3.7969v-5.4688h3.7969v-6.7969z"/>
  </symbol>
  <symbol id="g" overflow="visible">
   <path d="m19.953-20.422v-12.812h7.6875v33.234h-7.6875v-3.4531c-1.0547 1.4062-2.2148 2.4375-3.4844 3.0938-1.2734 0.65625-2.7422 0.98438-4.4062 0.98438-2.9492 0-5.3711-1.1719-7.2656-3.5156-1.8867-2.3438-2.8281-5.3594-2.8281-9.0469s0.94141-6.7031 2.8281-9.0469c1.8945-2.3438 4.3164-3.5156 7.2656-3.5156 1.6562 0 3.1172 0.33594 4.3906 1 1.2812 0.65625 2.4453 1.6836 3.5 3.0781zm-5.0469 15.484c1.6445 0 2.8945-0.59766 3.75-1.7969 0.86328-1.1953 1.2969-2.9297 1.2969-5.2031 0-2.2812-0.43359-4.0195-1.2969-5.2188-0.85547-1.1953-2.1055-1.7969-3.75-1.7969-1.625 0-2.8711 0.60156-3.7344 1.7969-0.85547 1.1992-1.2812 2.9375-1.2812 5.2188 0 2.2734 0.42578 4.0078 1.2812 5.2031 0.86328 1.1992 2.1094 1.7969 3.7344 1.7969z"/>
  </symbol>
  <symbol id="f" overflow="visible">
   <path d="m16.406-4.9375c1.6328 0 2.8828-0.59766 3.75-1.7969 0.86328-1.1953 1.2969-2.9297 1.2969-5.2031 0-2.2812-0.43359-4.0195-1.2969-5.2188-0.86719-1.1953-2.1172-1.7969-3.75-1.7969-1.6367 0-2.8906 0.60547-3.7656 1.8125-0.875 1.1992-1.3125 2.9336-1.3125 5.2031 0 2.2617 0.4375 3.9961 1.3125 5.2031 0.875 1.1992 2.1289 1.7969 3.7656 1.7969zm-5.0781-15.484c1.0508-1.3945 2.2188-2.4219 3.5-3.0781 1.2812-0.66406 2.7539-1 4.4219-1 2.9453 0 5.3672 1.1719 7.2656 3.5156 1.8945 2.3438 2.8438 5.3594 2.8438 9.0469s-0.94922 6.7031-2.8438 9.0469c-1.8984 2.3438-4.3203 3.5156-7.2656 3.5156-1.668 0-3.1406-0.33594-4.4219-1s-2.4492-1.6914-3.5-3.0781v3.4531h-7.6562v-33.234h7.6562z"/>
  </symbol>
  <symbol id="e" overflow="visible">
   <path d="m0.53125-23.922h7.6562l6.4219 16.234 5.4688-16.234h7.6562l-10.062 26.188c-1.0117 2.6641-2.1953 4.5234-3.5469 5.5781-1.3438 1.0625-3.1211 1.5938-5.3281 1.5938h-4.4219v-5.0156h2.3906c1.3008 0 2.2422-0.21094 2.8281-0.625 0.59375-0.40625 1.0547-1.1484 1.3906-2.2188l0.20312-0.65625z"/>
  </symbol>
  <symbol id="c" overflow="visible">
   <path d="m26.219-30.891v6.75c-1.7617-0.78125-3.4766-1.3672-5.1406-1.7656-1.668-0.40625-3.2422-0.60938-4.7188-0.60938-1.9609 0-3.4141 0.27344-4.3594 0.8125-0.9375 0.54297-1.4062 1.3867-1.4062 2.5312 0 0.85547 0.31641 1.5234 0.95312 2 0.63281 0.46875 1.7852 0.875 3.4531 1.2188l3.5 0.70312c3.5391 0.71875 6.0625 1.8047 7.5625 3.25 1.5 1.4492 2.25 3.5117 2.25 6.1875 0 3.5234-1.0469 6.1406-3.1406 7.8594-2.0859 1.7188-5.2734 2.5781-9.5625 2.5781-2.0234 0-4.0547-0.19531-6.0938-0.57812-2.0312-0.38281-4.0625-0.95703-6.0938-1.7188v-6.9375c2.0312 1.0859 3.9922 1.9023 5.8906 2.4531 1.9062 0.54297 3.7422 0.8125 5.5156 0.8125 1.7891 0 3.1602-0.29688 4.1094-0.89062 0.95703-0.60156 1.4375-1.457 1.4375-2.5625 0-1-0.32422-1.7695-0.96875-2.3125-0.64844-0.53906-1.9375-1.0234-3.875-1.4531l-3.1875-0.70312c-3.1875-0.6875-5.5234-1.7734-7-3.2656-1.4688-1.5-2.2031-3.5156-2.2031-6.0469 0-3.1758 1.0234-5.6172 3.0781-7.3281 2.0508-1.707 5-2.5625 8.8438-2.5625 1.75 0 3.5508 0.13281 5.4062 0.39062 1.8516 0.26172 3.7695 0.65625 5.75 1.1875z"/>
  </symbol>
  <symbol id="n" overflow="visible">
   <path d="m3.4219-9.3125v-14.609h7.6875v2.3906c0 1.293-0.011719 2.918-0.03125 4.875-0.011719 1.9609-0.015625 3.2656-0.015625 3.9219 0 1.9297 0.046875 3.3125 0.14062 4.1562 0.10156 0.84375 0.28125 1.4609 0.53125 1.8438 0.3125 0.5 0.71875 0.88672 1.2188 1.1562 0.50781 0.27344 1.0938 0.40625 1.75 0.40625 1.5938 0 2.8438-0.60938 3.75-1.8281 0.91406-1.2266 1.375-2.9297 1.375-5.1094v-11.812h7.6406v23.922h-7.6406v-3.4531c-1.1562 1.3867-2.3828 2.4141-3.6719 3.0781-1.2812 0.66406-2.6992 1-4.25 1-2.7734 0-4.8828-0.84766-6.3281-2.5469-1.4375-1.6953-2.1562-4.1602-2.1562-7.3906z"/>
  </symbol>
  <symbol id="m" overflow="visible">
   <path d="m25.844-19.953c0.96875-1.4766 2.1172-2.6016 3.4531-3.375 1.332-0.78125 2.7969-1.1719 4.3906-1.1719 2.75 0 4.8438 0.85156 6.2812 2.5469 1.4375 1.6875 2.1562 4.1523 2.1562 7.3906v14.562h-7.6875v-12.469c0.007812-0.1875 0.019531-0.37891 0.03125-0.57812 0.007812-0.19531 0.015625-0.48438 0.015625-0.85938 0-1.6953-0.25-2.9258-0.75-3.6875-0.5-0.75781-1.3086-1.1406-2.4219-1.1406-1.4492 0-2.5703 0.60156-3.3594 1.7969-0.79297 1.1992-1.2031 2.9297-1.2344 5.1875v11.75h-7.6875v-12.469c0-2.6562-0.23047-4.3633-0.6875-5.125-0.44922-0.75781-1.2578-1.1406-2.4219-1.1406-1.4688 0-2.6055 0.60547-3.4062 1.8125-0.79297 1.1992-1.1875 2.918-1.1875 5.1562v11.766h-7.7031v-23.922h7.7031v3.5c0.9375-1.3516 2.0156-2.3672 3.2344-3.0469 1.2188-0.6875 2.5547-1.0312 4.0156-1.0312 1.6562 0 3.1133 0.40234 4.375 1.2031 1.2695 0.79297 2.2344 1.9062 2.8906 3.3438z"/>
  </symbol>
  <symbol id="l" overflow="visible">
   <path d="m3.6719-23.922h7.6562v23.922h-7.6562zm0-9.3125h7.6562v6.2344h-7.6562z"/>
  </symbol>
  <symbol id="k" overflow="visible">
   <path d="m27.734-14.562v14.562h-7.7031v-11.156c0-2.0625-0.046875-3.4844-0.14062-4.2656-0.085937-0.78125-0.24219-1.3594-0.46875-1.7344-0.30469-0.5-0.71094-0.88281-1.2188-1.1562-0.51172-0.28125-1.0938-0.42188-1.75-0.42188-1.5938 0-2.8516 0.61719-3.7656 1.8438-0.90625 1.2305-1.3594 2.9375-1.3594 5.125v11.766h-7.6562v-23.922h7.6562v3.5c1.1445-1.3945 2.3633-2.4219 3.6562-3.0781 1.3008-0.66406 2.7383-1 4.3125-1 2.7578 0 4.8516 0.85156 6.2812 2.5469 1.4375 1.6875 2.1562 4.1523 2.1562 7.3906z"/>
  </symbol>
  <symbol id="j" overflow="visible">
   <path d="m19.953-4.0625c-1.0547 1.3984-2.2148 2.4219-3.4844 3.0781-1.2734 0.65625-2.7422 0.98438-4.4062 0.98438-2.918 0-5.3281-1.1484-7.2344-3.4531-1.9062-2.3008-2.8594-5.2266-2.8594-8.7812 0-3.582 0.95312-6.5156 2.8594-8.7969s4.3164-3.4219 7.2344-3.4219c1.6641 0 3.1328 0.32812 4.4062 0.98438 1.2695 0.64844 2.4297 1.6797 3.4844 3.0938v-3.5469h7.6875v21.516c0 3.8438-1.2148 6.7734-3.6406 8.7969-2.4297 2.0312-5.9492 3.0469-10.562 3.0469-1.5 0-2.9492-0.11719-4.3438-0.34375-1.3984-0.21875-2.7969-0.57031-4.2031-1.0469v-5.9531c1.3438 0.76953 2.6562 1.3438 3.9375 1.7188s2.5664 0.5625 3.8594 0.5625c2.5078 0 4.3477-0.54688 5.5156-1.6406 1.1641-1.0938 1.75-2.8047 1.75-5.1406zm-5.0469-14.891c-1.5742 0-2.8047 0.58984-3.6875 1.7656-0.88672 1.168-1.3281 2.8203-1.3281 4.9531 0 2.1875 0.42578 3.8516 1.2812 4.9844 0.85156 1.1367 2.0977 1.7031 3.7344 1.7031 1.5938 0 2.832-0.58203 3.7188-1.75 0.88281-1.1758 1.3281-2.8203 1.3281-4.9375 0-2.1328-0.44531-3.7852-1.3281-4.9531-0.88672-1.1758-2.125-1.7656-3.7188-1.7656z"/>
  </symbol>
  <symbol id="i" overflow="visible">
   <path d="m27.734-14.562v14.562h-7.7031v-11.109c0-2.0938-0.046875-3.5312-0.14062-4.3125-0.085937-0.78125-0.24219-1.3594-0.46875-1.7344-0.30469-0.5-0.71094-0.88281-1.2188-1.1562-0.51172-0.28125-1.0938-0.42188-1.75-0.42188-1.5938 0-2.8516 0.61719-3.7656 1.8438-0.90625 1.2305-1.3594 2.9375-1.3594 5.125v11.766h-7.6562v-33.234h7.6562v12.812c1.1445-1.3945 2.3633-2.4219 3.6562-3.0781 1.3008-0.66406 2.7383-1 4.3125-1 2.7578 0 4.8516 0.85156 6.2812 2.5469 1.4375 1.6875 2.1562 4.1523 2.1562 7.3906z"/>
  </symbol>
 </defs>
 <g>
  <path d="m428.75 43.75c0-4.0156-2.7344-7.5156-6.6328-8.4883l-70-17.5c-2.6133-0.65234-5.3789-0.0625-7.5039 1.5938-2.1211 1.6602-3.3633 4.2031-3.3633 6.8945v35c0 2.6914 1.2422 5.2344 3.3633 6.8945 2.125 1.6562 4.8906 2.2461 7.5039 1.5938l70-17.5c3.8984-0.97266 6.6328-4.4727 6.6328-8.4883zm-70 6.293v-12.586l25.172 6.293z"/>
  <path d="m554.75 425.98-14.742-9.4844c-3.0625 4.75-6.3008 9.4062-9.625 13.832l14 10.5c3.5586-4.7305 7.0508-9.7383 10.367-14.848z"/>
  <path d="m532.99 455-13.238-11.488c-3.6484 4.1992-7.5078 8.3555-11.488 12.336l12.363 12.375c4.2891-4.2812 8.4453-8.7344 12.363-13.223z"/>
  <path d="m454.45 496.18 8.3984 15.348c5.25-2.8867 10.5-6.0117 15.566-9.2578l-9.4688-14.707c-4.6953 3.0195-9.5703 5.9414-14.496 8.6172z"/>
  <path d="m213.5 487.52c-4.75-3.0625-9.4062-6.3008-13.832-9.625l-10.5 14c4.7773 3.5859 9.7812 7.0703 14.875 10.359z"/>
  <path d="m307.64 522.63c-5.4766-0.77734-11.059-1.75-16.625-2.9648l-3.6562 17.105c5.9492 1.2695 11.934 2.3438 17.805 3.1836z"/>
  <path d="m243.09 503.71c-5.1445-2.3555-10.219-4.8906-15.078-7.5586l-8.3906 15.348c5.25 2.8711 10.684 5.6016 16.203 8.1289z"/>
  <path d="m274.7 515.5c-5.3477-1.5664-10.727-3.3594-16.02-5.3203l-6.125 16.406c5.6797 2.1094 11.461 4.0352 17.195 5.7148z"/>
  <path d="m107.37 255.15c0.76953-5.4766 1.75-11.059 2.957-16.625l-17.105-3.6562c-1.2695 5.9414-2.3438 11.934-3.1836 17.805z"/>
  <path d="m507.39 480.56-11.461-13.211c-4.2773 3.7031-8.6797 7.2617-13.125 10.578l10.5 14c4.7578-3.5625 9.5-7.3867 14.086-11.367z"/>
  <path d="m114.5 222.25c1.5664-5.3477 3.3594-10.727 5.3203-16.02l-16.406-6.125c-2.1094 5.6797-4.0352 11.461-5.7148 17.195z"/>
  <path d="m142.46 416.5c-3.0547-4.7422-5.9492-9.625-8.6094-14.5l-15.363 8.375c2.8711 5.25 5.9844 10.5 9.2656 15.574z"/>
  <path d="m97.719 360.28 16.801-4.9258c-1.6016-5.4531-3-10.945-4.1562-16.328l-17.105 3.6758c1.2422 5.793 2.7461 11.672 4.4609 17.578z"/>
  <path d="m90.055 324.89 17.324-2.4766c-0.77734-5.4961-1.3828-11.141-1.75-16.766l-17.449 1.2266c0.38672 6.0469 1.0273 12.109 1.875 18.016z"/>
  <path d="m126.3 386.91c-2.3086-5.0391-4.4805-10.281-6.457-15.559l-16.391 6.125c2.1094 5.6719 4.4453 11.297 6.9297 16.711z"/>
  <path d="m446.68 519.63-7.2812-15.918c-5.0391 2.3086-10.281 4.4805-15.559 6.457l6.125 16.391c5.6719-2.1094 11.297-4.4453 16.715-6.9297z"/>
  <path d="m126.29 190.61c2.3555-5.1445 4.8906-10.219 7.5586-15.078l-15.348-8.4062c-2.8711 5.25-5.6016 10.684-8.1289 16.203z"/>
  <path d="m105.59 271.91-17.5-1.207c-0.375 5.9688-0.58594 12.039-0.58594 18.051h17.5c0-5.6094 0.19141-11.27 0.58594-16.844z"/>
  <path d="m152.1 147.18-14-10.5c-3.5859 4.7773-7.0703 9.7812-10.359 14.875l14.727 9.4492c3.0625-4.7422 6.2812-9.3984 9.6328-13.824z"/>
  <path d="m562.67 371.33 16.406 6.125c2.1094-5.6797 4.0352-11.461 5.7148-17.195l-16.801-4.9258c-1.5664 5.332-3.3594 10.711-5.3203 15.996z"/>
  <path d="m548.62 402 15.348 8.4102c2.9062-5.293 5.6445-10.746 8.1367-16.203l-15.918-7.2812c-2.3164 5.0742-4.8555 10.148-7.5664 15.074z"/>
  <path d="m572.16 339 17.105 3.6562c1.2695-5.9492 2.3438-11.934 3.1836-17.805l-17.324-2.4766c-0.77734 5.4805-1.7852 11.062-2.9648 16.625z"/>
  <path d="m374.9 522.63c-5.4961 0.77734-11.141 1.3828-16.766 1.75l1.2266 17.449c6.0469-0.42188 12.109-1.0586 18.016-1.9062z"/>
  <path d="m341.25 525c-5.6523 0-11.312-0.19141-16.836-0.58594l-1.2422 17.449c5.9336 0.42969 12.031 0.64062 18.094 0.64062z"/>
  <path d="m162.67 443.43c-3.7031-4.2773-7.2617-8.6797-10.578-13.125l-14 10.5c3.5703 4.7773 7.4023 9.5195 11.375 14.105z"/>
  <path d="m407.84 515.48c-5.4531 1.6016-10.945 3-16.328 4.1562l3.6758 17.105c5.793-1.2422 11.707-2.7461 17.578-4.4609z"/>
  <path d="m228.02 81.375-8.3984-15.391c-5.25 2.8711-10.5 5.9844-15.574 9.2656l9.4492 14.707c4.7695-3.0508 9.625-5.957 14.523-8.582z"/>
  <path d="m243.07 73.797c5.0391-2.3086 10.281-4.4805 15.559-6.457l-6.125-16.391c-5.6719 2.1094-11.297 4.4453-16.711 6.9297z"/>
  <path d="m305.09 37.555 2.4766 17.324c5.6094-0.79688 11.242-1.3984 16.746-1.75l-1.1914-17.5c-5.9375 0.42188-12 1.0586-18.031 1.9258z"/>
  <path d="m186.5 467.25c-4.1992-3.6484-8.3555-7.5078-12.336-11.488l-12.371 12.363c4.2773 4.2695 8.75 8.4258 13.266 12.348z"/>
  <path d="m175.1 96.969 11.461 13.211c4.2773-3.7031 8.6797-7.2617 13.125-10.578l-10.5-14c-4.7617 3.5508-9.5039 7.3828-14.086 11.367z"/>
  <path d="m269.71 45.23 4.9258 16.801c5.4258-1.5938 10.922-2.9922 16.336-4.1641l-3.6914-17.105c-5.8281 1.2383-11.742 2.7617-17.57 4.4688z"/>
  <path d="m174.2 121.68-12.328-12.371c-4.2695 4.2695-8.4258 8.75-12.348 13.266l13.223 11.445c3.6133-4.1992 7.4727-8.3555 11.453-12.34z"/>
  <path d="m586.25 245c-8.2891-0.023438-16.102 3.8789-21.059 10.52-4.9609 6.6445-6.4805 15.242-4.1055 23.18 2.3789 7.9414 8.375 14.289 16.168 17.113-0.097656 3.2734-0.11328 6.5781-0.33984 9.793l17.449 1.2422c0.25391-3.5703 0.28125-7.2344 0.38672-10.875l-0.003906-0.003906c7.9062-2.6836 14.055-8.9805 16.559-16.945 2.5-7.9648 1.0508-16.645-3.8984-23.367s-12.809-10.68-21.156-10.656zm0 35c-3.5391 0-6.7305-2.1328-8.082-5.4023-1.3555-3.2695-0.60938-7.0312 1.8945-9.5352s6.2656-3.25 9.5352-1.8945c3.2695 1.3516 5.4023 4.543 5.4023 8.082 0 2.3203-0.92188 4.5469-2.5625 6.1875s-3.8672 2.5625-6.1875 2.5625z"/>
  <path d="m481.25 309.75v-38.5c0-2.3203-0.92188-4.5469-2.5625-6.1875s-3.8672-2.5625-6.1875-2.5625h-11.559c-0.70312-9.625-5.1328-18.598-12.352-25.004-7.2227-6.4023-16.656-9.7383-26.297-9.2891-4.5664-5.3398-10.504-9.332-17.168-11.547-6.668-2.2148-13.812-2.5703-20.668-1.0234-2.5742-0.52344-5.1953-0.81641-7.8203-0.875-8.3867-8.8633-20.133-13.762-32.328-13.484-12.199 0.27734-23.707 5.707-31.68 14.945-3.6328-0.98438-7.3828-1.4805-11.148-1.4805-9.9492-0.25-19.645 3.1406-27.27 9.5391-7.6211 6.3945-12.645 15.359-14.125 25.199-7.3164 1.9883-13.633 6.6289-17.711 13.02h-14.875c-4.832 0-8.75 3.918-8.75 8.75v38.5c0 2.3203 0.92188 4.5469 2.5625 6.1875s3.8672 2.5625 6.1875 2.5625h21.48c1.4805 3.8242 3.2344 7.5352 5.25 11.105l-13.867 11.891c-1.9414 1.6602-3.0586 4.0898-3.0586 6.6445s1.1172 4.9844 3.0586 6.6445l34.648 29.699c3.2734 2.8008 8.1016 2.8008 11.375 0l15.305-13.125c4.8867 2.1523 9.918 3.9648 15.059 5.4141v16.977c0 2.3203 0.92188 4.5469 2.5625 6.1875s3.8672 2.5625 6.1875 2.5625h49c2.3203 0 4.5469-0.92188 6.1875-2.5625s2.5625-3.8672 2.5625-6.1875v-16.949c5.1406-1.4531 10.172-3.2617 15.059-5.4141l15.305 13.125c3.2734 2.8008 8.1016 2.8008 11.375 0l34.648-29.699c1.9414-1.6641 3.0586-4.0898 3.0586-6.6445 0-2.5547-1.1172-4.9844-3.0586-6.6484l-13.879-11.891h0.003907c2.0117-3.5703 3.7695-7.2812 5.25-11.102h21.488c2.3242 0 4.5547-0.92578 6.1953-2.5742 1.6445-1.6445 2.5625-3.8789 2.5547-6.2031zm-203.54-53.543c-0.0625-0.55078-0.14844-1.1211-0.35156-2.3555v-0.26953h0.003907c0.42578-6.0117 3.1914-11.621 7.707-15.613 4.5195-3.9961 10.422-6.0586 16.441-5.7422 3.7539 0.011719 7.4609 0.83984 10.859 2.4297 1.375 0.59766 2.8867 0.82031 4.375 0.64844v1.1211c4.875 0.046875 8.7891 4.0312 8.75 8.9062h17.5c0-8.9141-4.5039-17.23-11.969-22.102 4.2031-2.8945 9.1836-4.4531 14.289-4.4805 7.9414-0.12109 15.453 3.5977 20.176 9.9844 1.8945 2.5039 4.9375 3.8633 8.0664 3.6133 2.9688-0.23828 5.9531 0.015625 8.8398 0.75391 1.4336 0.375 2.9414 0.375 4.375 0 1.9414-0.55469 3.9453-0.85156 5.9648-0.875 3.8086 0.007813 7.5469 1.0156 10.844 2.9219-5.1875 4.9688-8.125 11.84-8.1289 19.023h17.5c-0.015625-3.5234 2.043-6.7227 5.25-8.1758 0.41797 0.015625 0.83594-0.003906 1.25-0.058594 5.3828-1.0664 10.969 0.089844 15.484 3.2109 4.5117 3.1211 7.5703 7.9375 8.4727 13.352h-167.6c1.4258-1.7695 2.1094-4.0273 1.8984-6.293zm124.24 23.793c-3.6484 29.645-25.551 52.5-51.957 52.5s-48.309-22.855-51.957-52.5zm61.793 21h-18.961c-3.8594 0-7.2578 2.5273-8.375 6.2227-2.0742 6.8281-5.1992 13.289-9.2656 19.152-2.5391 3.6875-1.8867 8.6992 1.5156 11.609l11.84 10.141-21.203 18.195-13.906-11.945c-2.6797-2.293-6.4727-2.75-9.625-1.1641-7.3398 3.6914-15.113 6.4492-23.141 8.207-4.0078 0.88672-6.8594 4.4375-6.8633 8.5391v15.043h-31.516v-15.008c0-4.1016-2.8555-7.6523-6.8594-8.5391-8.0273-1.7578-15.805-4.5156-23.145-8.207-3.1484-1.5859-6.9453-1.1289-9.625 1.1641l-13.922 11.91-21.203-18.172 11.84-10.141v-0.003906c3.4023-2.9141 4.0547-7.9258 1.5156-11.613-4.0703-5.8672-7.1953-12.336-9.2656-19.168-1.1172-3.6953-4.5156-6.2227-8.375-6.2227h-18.961v-21h44.203c3.9219 39.312 33.586 70 69.547 70s65.625-30.688 69.547-70h44.203z"/>
  <path d="m341.25 131.25h17.5v35h-17.5z"/>
  <path d="m439.71 199.79 24.754-24.754 12.375 12.375-24.754 24.754z"/>
  <path d="m223.16 187.41 12.375-12.375 24.754 24.754-12.375 12.375z"/>
  <use x="70" y="691.25" xlink:href="#o"/>
  <use x="102.109375" y="691.25" xlink:href="#h"/>
  <use x="123.683594" y="691.25" xlink:href="#b"/>
  <use x="153.355469" y="691.25" xlink:href="#d"/>
  <use x="182.878906" y="691.25" xlink:href="#a"/>
  <use x="203.792969" y="691.25" xlink:href="#b"/>
  <use x="233.464844" y="691.25" xlink:href="#g"/>
  <use x="280.011719" y="691.25" xlink:href="#f"/>
  <use x="311.328125" y="691.25" xlink:href="#e"/>
  <use x="355.078125" y="691.25" xlink:href="#c"/>
  <use x="386.589844" y="691.25" xlink:href="#n"/>
  <use x="417.734375" y="691.25" xlink:href="#m"/>
  <use x="463.324219" y="691.25" xlink:href="#l"/>
  <use x="478.320312" y="691.25" xlink:href="#a"/>
  <use x="514.464844" y="691.25" xlink:href="#c"/>
  <use x="545.972656" y="691.25" xlink:href="#d"/>
  <use x="575.496094" y="691.25" xlink:href="#b"/>
  <use x="605.167969" y="691.25" xlink:href="#k"/>
  <use x="636.316406" y="691.25" xlink:href="#j"/>
  <use x="667.632812" y="691.25" xlink:href="#a"/>
  <use x="688.546875" y="691.25" xlink:href="#i"/>
 </g>
</svg>
